<?xml version="1.0" standalone="no"?>
<!DOCTYPE svg PUBLIC "-//W3C//DTD SVG 20010904//EN"
 "http://www.w3.org/TR/2001/REC-SVG-20010904/DTD/svg10.dtd">
<svg version="1.0" xmlns="http://www.w3.org/2000/svg"
 width="16.000000pt" height="16.000000pt" viewBox="0 0 16.000000 16.000000"
 preserveAspectRatio="xMidYMid meet">
<metadata>
Created by potrace 1.11, written by Peter Selinger 2001-2013
</metadata>
<g transform="translate(0.000000,16.000000) scale(0.002909,-0.002909)"
fill="#000000" stroke="none">
<path d="M2098 3893 c7 -3 16 -2 19 1 4 3 -2 6 -13 5 -11 0 -14 -3 -6 -6z"/>
<path d="M2130 3890 c0 -6 6 -10 13 -9 10 2 42 -2 117 -16 149 -28 426 -118
538 -174 268 -135 333 -270 229 -476 -40 -80 -66 -117 -79 -109 -11 7 -33 11
-81 13 l-28 1 45 63 c94 132 115 212 75 294 -44 90 -196 183 -398 243 -109 32
-118 34 -216 50 -33 5 -70 12 -82 14 -12 3 -50 7 -85 11 -35 3 -74 7 -88 10
-14 2 -81 7 -150 10 -68 4 -129 9 -135 12 -7 4 -7 3 0 -4 6 -6 60 -18 120 -28
143 -23 127 -19 262 -55 136 -36 313 -108 375 -152 183 -130 198 -245 59 -456
-70 -106 -158 -215 -164 -205 -2 4 -3 47 -2 96 1 73 -1 87 -14 88 -22 1 -142
1 -167 0 -20 -1 -21 -5 -20 -202 1 -110 -2 -208 -5 -217 -4 -9 -29 -41 -56
-71 l-48 -53 -120 273 -120 274 -65 -2 c-36 -1 -72 -2 -80 -2 -8 -1 -20 -13
-27 -28 -7 -16 -21 -48 -31 -73 -11 -25 -28 -65 -39 -90 -12 -25 -37 -83 -58
-130 -20 -47 -43 -98 -50 -115 -12 -26 -87 -197 -102 -232 -4 -10 20 -12 100
-11 l104 2 38 83 38 83 95 -2 95 -3 35 -83 c32 -76 37 -83 59 -79 13 2 22 2
21 -2 -2 -3 -16 -32 -32 -64 -75 -150 -26 -271 142 -356 39 -20 67 -42 82 -65
49 -81 174 -161 324 -210 44 -15 88 -28 100 -30 12 -2 34 -7 50 -11 16 -5 36
-9 45 -10 15 -1 78 -11 141 -21 36 -6 207 -18 257 -19 24 0 43 -2 43 -5 0 -4
263 -5 293 -1 18 2 5 17 -15 17 -64 1 -263 34 -423 70 -159 35 -295 82 -395
134 -38 20 -55 46 -24 37 45 -14 527 -28 538 -16 3 3 -15 6 -41 8 -26 1 -49 4
-52 6 -3 1 -31 6 -61 10 -138 16 -427 75 -492 100 -30 12 -20 -13 24 -61 l42
-46 -34 6 c-19 3 -48 8 -65 11 -82 13 -158 30 -227 52 -41 12 -49 19 -57 49
-14 50 -1 174 18 174 4 0 14 -12 21 -26 25 -46 94 -92 199 -134 l51 -20 -4 45
c-8 79 34 190 123 325 l36 55 77 3 76 3 -1 84 c-1 47 0 85 3 85 3 0 36 -38 74
-85 l70 -85 80 -1 c45 0 98 -1 119 -2 20 -1 37 1 37 4 0 6 -46 62 -132 161
l-59 67 29 15 c16 8 45 33 65 55 53 59 69 133 46 211 -10 34 -9 39 16 66 56
60 171 221 199 278 80 164 20 284 -204 404 -56 30 -241 96 -295 105 -16 3 -70
15 -120 25 -49 11 -110 23 -135 26 -110 15 -190 25 -250 30 -186 16 -210 16
-210 6z m693 -957 c3 -5 -1 -13 -8 -20 -10 -10 -14 -9 -18 1 -8 21 15 37 26
19z m-221 -180 l-3 -76 -50 -52 c-28 -29 -57 -62 -65 -74 -25 -35 -31 -25 -29
49 2 68 3 70 51 126 27 31 57 67 67 80 10 13 22 24 26 24 4 0 5 -34 3 -77z
m-762 42 c0 -8 -4 -15 -10 -15 -5 0 -10 7 -10 15 0 8 5 15 10 15 6 0 10 -7 10
-15z m533 -367 c-52 -66 -133 -182 -138 -198 -11 -35 -24 -21 -19 21 6 45 28
107 57 157 17 29 24 32 64 32 35 0 43 -3 36 -12z"/>
<path d="M254 3361 c-2 -2 -4 -210 -4 -462 l0 -458 111 -3 c73 -2 113 1 116 8
2 6 2 117 1 247 -2 130 0 237 4 237 4 0 10 -10 14 -22 4 -13 17 -45 30 -73 13
-27 57 -126 98 -220 l75 -170 76 -5 c43 -3 81 -2 86 1 10 6 209 453 209 469 0
6 3 10 8 10 4 0 7 -107 7 -237 l0 -238 120 0 120 0 1 450 c0 248 -3 455 -7
460 -8 11 -284 15 -292 5 -2 -3 -55 -124 -117 -270 -61 -146 -115 -269 -119
-273 -5 -4 -47 83 -96 195 -48 112 -101 231 -116 266 -16 34 -29 67 -29 72 0
6 -6 11 -12 11 -41 4 -280 4 -284 0z"/>
<path d="M3269 3105 c-1 -5 -2 -156 -3 -335 l-1 -325 45 -5 c25 -3 70 -4 101
-2 l55 4 0 334 c0 296 -1 334 -15 335 -109 5 -181 2 -182 -6z"/>
<path d="M3614 3111 c-2 -2 -4 -154 -4 -338 l0 -333 38 -1 c151 -2 269 2 301
11 90 24 161 113 161 201 0 42 -19 96 -44 122 -23 24 -23 28 -10 64 42 120
-31 244 -160 268 -37 7 -276 12 -282 6z m235 -182 c31 -11 37 -23 23 -47 -9
-14 -61 -22 -62 -9 -1 32 1 67 4 67 1 0 17 -5 35 -11z m52 -245 c5 -3 9 -16 9
-29 0 -25 -12 -32 -69 -37 -33 -3 -34 -3 -35 41 l-1 43 43 -6 c24 -3 48 -8 53
-12z"/>
<path d="M4234 3111 c-2 -2 -4 -154 -4 -338 l0 -333 90 0 c50 -1 124 -1 165
-1 41 0 101 0 133 1 l58 0 -1 88 0 87 -110 1 c-61 1 -116 2 -122 3 -8 1 -13
15 -13 36 l0 35 124 0 124 0 -2 81 c-1 46 -7 83 -13 87 -6 4 -61 6 -123 6
l-111 -2 3 37 3 36 124 0 123 0 0 63 c-1 34 -1 74 -1 90 l-1 27 -221 0 c-121
0 -223 -2 -225 -4z"/>
<path d="M4834 3111 c-2 -2 -4 -154 -4 -337 l0 -333 98 -3 c53 -2 147 -2 207
0 l110 3 -2 72 c-1 40 -2 79 -2 88 -1 13 -17 15 -102 15 -57 -1 -104 3 -108 9
-4 6 -7 117 -7 248 1 154 -2 237 -9 238 -43 3 -178 3 -181 0z"/>
<path d="M5144 3085 c-32 -32 -29 -71 7 -98 22 -15 33 -17 55 -10 53 18 59 99
9 121 -36 17 -43 15 -71 -13z m90 -32 c11 -40 -5 -63 -43 -63 -35 0 -50 11
-55 40 -5 35 21 62 58 58 25 -2 32 -9 40 -35z"/>
<path d="M5162 3066 c-5 -6 -5 -24 -1 -41 3 -16 7 -22 8 -12 1 21 17 22 29 1
6 -11 11 -13 16 -5 4 6 2 11 -4 11 -6 0 -8 10 -4 24 4 18 1 25 -15 29 -11 3
-24 0 -29 -7z m38 -10 c0 -11 -19 -15 -25 -6 -3 5 1 10 9 10 9 0 16 -2 16 -4z"/>
<path d="M3727 2334 c-57 -14 -84 -36 -103 -81 -41 -95 106 -152 176 -68 10
13 5 12 -21 -4 -37 -22 -86 -22 -100 0 -24 37 13 118 63 139 36 16 60 10 74
-18 12 -23 12 -23 23 8 8 24 8 31 -2 27 -6 -2 -23 -1 -37 3 -14 4 -47 1 -73
-6z"/>
<path d="M4542 2323 c-21 -33 -11 -36 26 -10 37 26 40 33 11 33 -12 0 -28 -11
-37 -23z"/>
<path d="M4739 2334 c-10 -13 -10 -17 2 -25 23 -14 39 -10 39 10 0 25 -25 34
-41 15z"/>
<path d="M4631 2284 c-19 -13 -29 -24 -23 -24 8 0 5 -17 -7 -50 -18 -46 -18
-51 -3 -59 20 -10 62 3 62 20 0 8 -4 8 -15 -1 -19 -15 -19 -14 1 43 10 30 22
47 32 47 12 0 13 3 5 11 -6 6 -9 18 -6 25 7 20 -7 16 -46 -12z"/>
<path d="M3888 2263 c-31 -20 -59 -69 -51 -90 16 -41 95 -32 136 15 56 62 -11
121 -85 75z m59 -29 c-7 -43 -45 -90 -61 -74 -7 7 -6 22 3 48 17 46 29 62 49
62 11 0 13 -8 9 -36z"/>
<path d="M4048 2269 c-26 -15 -22 -35 12 -65 16 -15 27 -31 24 -35 -8 -14 -36
-10 -54 6 -16 14 -18 14 -22 -7 -4 -21 -1 -23 40 -21 73 3 94 39 47 83 -14 13
-25 27 -25 32 0 14 28 9 45 -8 17 -18 31 -13 22 8 -6 17 -66 21 -89 7z"/>
<path d="M4180 2270 c-10 -6 -11 -10 -3 -10 9 0 7 -14 -7 -50 -25 -63 -25 -60
3 -60 17 0 26 9 36 35 7 19 17 35 22 35 5 0 9 5 9 11 0 5 -5 7 -11 3 -8 -4 -8
0 0 15 7 11 10 21 9 22 -27 7 -46 6 -58 -1z"/>
<path d="M4259 2259 c-17 -15 -19 -19 -6 -15 21 7 21 7 2 -37 -20 -48 -19 -57
5 -57 13 0 24 10 31 28 11 28 47 72 60 72 4 0 1 -16 -7 -35 -20 -49 -18 -65
10 -65 24 0 54 26 42 37 -3 3 -6 1 -6 -5 0 -7 -4 -12 -10 -12 -5 0 -3 18 6 40
28 69 -1 93 -51 43 -16 -17 -26 -22 -25 -13 7 45 -13 53 -51 19z"/>
<path d="M4487 2261 c-37 -24 -56 -51 -57 -79 0 -38 60 -49 112 -21 28 15 16
21 -16 9 -15 -5 -32 -8 -37 -4 -19 11 -8 32 19 37 40 8 77 40 69 60 -8 22 -54
21 -90 -2z m53 -4 c0 -18 -36 -50 -50 -45 -7 2 -3 14 10 31 23 29 40 35 40 14z"/>
<path d="M4707 2268 c-9 -6 -9 -8 0 -8 10 0 8 -14 -6 -50 -17 -45 -18 -51 -3
-59 17 -10 62 6 62 22 0 5 -7 3 -16 -4 -15 -12 -16 -11 -9 11 4 14 14 40 21
59 8 18 14 35 14 37 0 6 -50 0 -63 -8z"/>
<path d="M4840 2263 c-37 -25 -49 -45 -50 -76 0 -20 6 -30 22 -36 24 -9 98 6
98 20 0 12 -7 11 -29 -1 -13 -6 -24 -5 -35 3 -23 17 -12 61 21 87 32 25 8 27
-27 3z"/>
<path d="M4896 2263 c-10 -26 11 -40 30 -21 15 15 15 17 -4 27 -16 8 -21 7
-26 -6z"/>
<path d="M5001 2263 c-21 -11 -39 -30 -48 -52 -14 -33 -14 -36 5 -52 39 -31
108 -5 137 51 14 28 14 31 -5 50 -24 24 -44 25 -89 3z m55 -25 c-9 -47 -39
-89 -55 -79 -27 17 15 111 50 111 8 0 9 -11 5 -32z"/>
<path d="M5152 2268 c-19 -19 -14 -36 18 -68 27 -26 28 -30 12 -39 -9 -5 -14
-13 -10 -17 10 -10 58 24 58 41 0 8 -11 26 -25 41 -28 30 -31 40 -12 47 6 3 3
6 -8 6 -12 1 -26 -4 -33 -11z"/>
<path d="M5210 2270 c0 -4 7 -13 15 -20 10 -9 15 -9 15 -1 0 6 1 14 3 18 1 3
-6 7 -15 9 -10 1 -18 -1 -18 -6z"/>
<path d="M5117 2171 c-3 -14 1 -20 19 -24 29 -5 30 -2 5 24 -18 20 -18 20 -24
0z"/>
</g>
</svg>
